{"title":"The Betrayed-AC3-5,1-DVDRip[Eng]2008","uid":5045470,"size":1286511690,"categoryP":"video","categoryS":"movies","magnet":"?xt=urn:btih:ed53e652418d8591f53d4545340a17d10dc8aec1&amp;dn=The+Betrayed-AC3-5%2C1-DVDRip%5BEng%5D2008&amp;tr=udp%3A%2F%2Ftracker.openbittorrent.com%3A80&amp;tr=udp%3A%2F%2Fopen.demonii.com%3A1337&amp;tr=udp%3A%2F%2Ftracker.coppersurfer.tk%3A6969&amp;tr=udp%3A%2F%2Fexodus.desync.com%3A6969","seeders":0,"leechers":0,"uploader":"FatFreddy31","files":-1,"time":1249603704,"description":" &lt;a href=&quot;http://www.imdb.com/title/tt1074191/&quot; rel=&quot;nofollow&quot; target=&quot;_NEW&quot;&gt;http://www.imdb.com/title/tt1074191/&lt;/a&gt;\n\nUser Rating:5.8/10 - 120 votes\n\nCrime/Drama/Mystery/Thriller\n\nDirector:Amanda Gusack\n\nCast:Melissa George/Oded Fehr/Christian Campbell/Alice Krige, and others.\n\nPlot:\nThe story follows a young woman as she's put through a psychological journey under the thumb of a mysterious figure who suspects her husband of stealing millions from a crime syndicate....\n\nInfo:\n\nCovers included.\n\nGeneral\nComplete name                    : The Betrayed-AC3-5,1-DVDRip[Eng]2008.avi\nFormat                           : AVI\nFormat/Info                      : Audio Video Interleave\nFile size                        : 1.20 GiB\nDuration                         : 1h 38mn\nOverall bit rate                 : 1 737 Kbps\nWriting application              : VirtualDubMod 1.5.4.1 (build 2178/release)\nWriting library                  : VirtualDubMod build 2178/release\n\nVideo\nFormat                           : MPEG-4 Visual\nFormat profile                   : Simple@L3\nFormat settings, BVOP            : No\nFormat settings, QPel            : No\nFormat settings, GMC             : No warppoints\nFormat settings, Matrix          : Default\nCodec ID                         : XVID\nCodec ID/Hint                    : XviD\nDuration                         : 1h 38mn\nBit rate                         : 1 279 Kbps\nWidth                            : 720 pixels\nHeight                           : 416 pixels\nDisplay aspect ratio             : 16/9\nFrame rate                       : 23.976 fps\nResolution                       : 24 bits\nColorimetry                      : 4:2:0\nScan type                        : Progressive\nBits/(Pixel*Frame)               : 0.178\nStream size                      : 902 MiB (74%)\nWriting library                  : XviD 1.1.2 (UTC 2006-11-01)\n\nAudio\nFormat                           : AC-3\nFormat/Info                      : Audio Coding 3\nCodec ID                         : 2000\nDuration                         : 1h 38mn\nBit rate mode                    : Constant\nBit rate                         : 448 Kbps\nChannel(s)                       : 6 channels\nChannel positions                : Front: L C R, Surround: L R, LFE\nSampling rate                    : 48.0 KHz\nStream size                      : 316 MiB (26%)\nAlignment                        : Split accross interleaves\nInterleave, duration             : 42 ms (1.00 video frame)\nInterleave, preload duration     : 500 ms\n\nEnjoy...","torrent":{"xt":"urn:btih:ed53e652418d8591f53d4545340a17d10dc8aec1","amp;dn":"The+Betrayed-AC3-5%2C1-DVDRip%5BEng%5D2008","amp;tr":["udp%3A%2F%2Ftracker.openbittorrent.com%3A80","udp%3A%2F%2Fopen.demonii.com%3A1337","udp%3A%2F%2Ftracker.coppersurfer.tk%3A6969","udp%3A%2F%2Fexodus.desync.com%3A6969"],"infoHash":"ed53e652418d8591f53d4545340a17d10dc8aec1","infoHashBuffer":{"type":"Buffer","data":[237,83,230,82,65,141,133,145,245,61,69,69,52,10,23,209,13,200,174,193]},"announce":[],"urlList":[]}}